<svg xmlns="http://www.w3.org/2000/svg" xmlns:xlink="http://www.w3.org/1999/xlink" width="83" height="83" viewBox="0 0 83 83">
  <defs>
    <filter id="Soustraction_2" x="0" y="0" width="83" height="83" filterUnits="userSpaceOnUse">
      <feOffset input="SourceAlpha"/>
      <feGaussianBlur stdDeviation="3" result="blur"/>
      <feFlood flood-opacity="0.161"/>
      <feComposite operator="in" in2="blur"/>
      <feComposite in="SourceGraphic"/>
    </filter>
  </defs>
  <g id="Composant_13_1" data-name="Composant 13 – 1" transform="translate(74 74) rotate(180)">
    <g transform="matrix(-1, 0, 0, -1, 74, 74)" filter="url(#Soustraction_2)">
      <path id="Soustraction_2-2" data-name="Soustraction 2" d="M32.5,65A32.509,32.509,0,0,1,19.85,2.554a32.508,32.508,0,0,1,25.3,59.892A32.294,32.294,0,0,1,32.5,65ZM18.978,22.805V34.752a8.016,8.016,0,0,0,1.046,4.12,7.282,7.282,0,0,0,2.855,2.777c.151.08.287.148.416.207v7.234h4.025V42.631a7.714,7.714,0,0,0,3.6-1.024,7.227,7.227,0,0,0,2.736-2.838,8.615,8.615,0,0,0,.989-4.186v-5.31a4.373,4.373,0,0,1,.622-2.394,4.323,4.323,0,0,1,1.648-1.532A4.706,4.706,0,0,1,39.1,24.8h.047a4.609,4.609,0,0,1,2.206.565,4.7,4.7,0,0,1,1.709,1.569,4.249,4.249,0,0,1,.676,2.414V41.546h3.419l-.012-12.627a7.881,7.881,0,0,0-1.087-4.145,7.319,7.319,0,0,0-3-2.8,9.36,9.36,0,0,0-2.34-.806v-5H36.7v5.032a7.953,7.953,0,0,0-1.944.747,6.993,6.993,0,0,0-2.736,2.778,8.821,8.821,0,0,0-1,4.346v5.438a4.263,4.263,0,0,1-.606,2.274,3.926,3.926,0,0,1-1.59,1.487,4.537,4.537,0,0,1-4.186-.02,4.206,4.206,0,0,1-1.61-1.529A4.365,4.365,0,0,1,22.4,34.4V22.805Z" transform="translate(74 74) rotate(180)" fill="#f8f8f8"/>
    </g>
  </g>
</svg>
