<svg xmlns="http://www.w3.org/2000/svg" xmlns:xlink="http://www.w3.org/1999/xlink" width="345.03" height="272.189" viewBox="0 0 345.03 272.189">
  <defs>
    <filter id="Intersection_1" x="0" y="0" width="345.03" height="272.189" filterUnits="userSpaceOnUse">
      <feOffset input="SourceAlpha"/>
      <feGaussianBlur stdDeviation="3" result="blur"/>
      <feFlood flood-opacity="0.161"/>
      <feComposite operator="in" in2="blur"/>
      <feComposite in="SourceGraphic"/>
    </filter>
  </defs>
  <g transform="matrix(1, 0, 0, 1, 0, 0)" filter="url(#Intersection_1)">
    <path id="Intersection_1-2" data-name="Intersection 1" d="M-132.981,609.343a26.518,26.518,0,0,1-13.075-19.7,26.449,26.449,0,0,1,3.3-16.945L-28.627,375.027a26.56,26.56,0,0,1,35.834-9.974A25.778,25.778,0,0,1,17.491,375.5a26.546,26.546,0,0,1-.066,26.454L-42.128,505.1A9.566,9.566,0,0,0-33,517.51H29.38a26.56,26.56,0,0,1,0,53.12H-74.7a9.559,9.559,0,0,0-7.054,3.109L-96.7,599.621a26.552,26.552,0,0,1-23.027,13.285A26.44,26.44,0,0,1-132.981,609.343Zm206.951-.363a26.567,26.567,0,0,1-9.72-36.28l40.84-70.74a9.554,9.554,0,0,0-8.28-14.331H34.5a26.563,26.563,0,0,1-26.55-27.31c.4-14.46,12.631-25.81,27.1-25.81h90.606c35.428,0,57.571,38.353,39.857,69.035L110.249,599.26a26.556,26.556,0,0,1-36.28,9.72ZM-127.067,441.263l-24.654-42.7A26.561,26.561,0,0,1-142,362.28h0A26.559,26.559,0,0,1-105.718,372l24.654,42.7a26.559,26.559,0,0,1-9.721,36.281,26.447,26.447,0,0,1-13.255,3.563A26.55,26.55,0,0,1-127.067,441.263Z" transform="translate(164.28 -349.72)" fill="#f8f8f8"/>
  </g>
</svg>
