<svg xmlns="http://www.w3.org/2000/svg" width="120" height="120" viewBox="0 0 120 120">
  <g id="Groupe_104" data-name="Groupe 104" transform="translate(-499 -942)">
    <circle id="Ellipse_18" data-name="Ellipse 18" cx="60" cy="60" r="60" transform="translate(499 942)" fill="#90a1d9"/>
    <path id="Icon_ionic-md-microphone" data-name="Icon ionic-md-microphone" d="M36,10.688V7.777A5.651,5.651,0,0,0,30.22,2.25H14.79A5.654,5.654,0,0,0,9,7.777v2.911H25.031v3.9H9v4.535H25.031v3.9H9v4.535H25.031v3.9H9v4.409a5.636,5.636,0,0,0,5.79,5.505h3.175V49.5h9.07V41.379H30.22A5.634,5.634,0,0,0,36,35.873V31.465H30.094v-3.9H36V23.027H30.094v-3.9H36V14.59H30.094v-3.9Z" transform="translate(537 975.75)" fill="#fff"/>
  </g>
</svg>
