<svg xmlns="http://www.w3.org/2000/svg" width="120" height="120" viewBox="0 0 120 120">
  <g id="Groupe_104" data-name="Groupe 104" transform="translate(-499 -942)">
    <circle id="Ellipse_18" data-name="Ellipse 18" cx="60" cy="60" r="60" transform="translate(499 942)" fill="#90a1d9"/>
    <path id="Icon_awesome-pencil-alt" data-name="Icon awesome-pencil-alt" d="M48.318,13.788l-4.474,4.474a1.166,1.166,0,0,1-1.65,0L31.422,7.49a1.166,1.166,0,0,1,0-1.65L35.9,1.366a4.668,4.668,0,0,1,6.589,0L48.318,7.2A4.651,4.651,0,0,1,48.318,13.788Zm-20.738-4.1L2.1,35.167.038,46.958a2.332,2.332,0,0,0,2.7,2.7l11.791-2.067L40.011,22.1a1.166,1.166,0,0,0,0-1.65L29.239,9.683a1.177,1.177,0,0,0-1.659,0Zm-15.537,23.3a1.353,1.353,0,0,1,0-1.921L26.987,16.117a1.359,1.359,0,0,1,1.921,1.921L13.964,32.983a1.353,1.353,0,0,1-1.921,0Zm-3.5,8.161H13.2v3.523l-6.259,1.1L3.92,42.746l1.1-6.259H8.539Z" transform="translate(534.156 977.152)" fill="#fff"/>
  </g>
</svg>
