<svg xmlns="http://www.w3.org/2000/svg" width="84.117" height="84.107" viewBox="0 0 84.117 84.107">
  <path id="Icon_ionic-ios-send" data-name="Icon ionic-ios-send" d="M85.968,4.691,5.546,39.743a1.843,1.843,0,0,0,.066,3.352l21.754,12.29a3.508,3.508,0,0,0,4.009-.394L74.27,18.011c.285-.241.964-.7,1.227-.438.285.285-.153.942-.394,1.227L37.991,60.6a3.5,3.5,0,0,0-.351,4.184L51.858,87.589a1.85,1.85,0,0,0,3.33-.044L88.444,7.123A1.844,1.844,0,0,0,85.968,4.691Z" transform="translate(-4.503 -4.503)" fill="#4a5dcb"/>
</svg>
