<svg xmlns="http://www.w3.org/2000/svg" width="120" height="120" viewBox="0 0 120 120">
  <g id="Groupe_127" data-name="Groupe 127" transform="translate(-499 -942)">
    <g id="Groupe_104" data-name="Groupe 104">
      <circle id="Ellipse_18" data-name="Ellipse 18" cx="60" cy="60" r="60" transform="translate(499 942)" fill="#90a1d9"/>
      <path id="Icon_ionic-ios-settings" data-name="Icon ionic-ios-settings" d="M29.271,18A3.474,3.474,0,0,1,31.5,14.759a13.772,13.772,0,0,0-1.666-4.015,3.521,3.521,0,0,1-1.413.3,3.467,3.467,0,0,1-3.171-4.88A13.73,13.73,0,0,0,21.241,4.5a3.471,3.471,0,0,1-6.483,0,13.772,13.772,0,0,0-4.015,1.666,3.467,3.467,0,0,1-3.171,4.88,3.406,3.406,0,0,1-1.413-.3A14.076,14.076,0,0,0,4.5,14.766a3.473,3.473,0,0,1,.007,6.483,13.772,13.772,0,0,0,1.666,4.015,3.468,3.468,0,0,1,4.577,4.577,13.852,13.852,0,0,0,4.015,1.666,3.465,3.465,0,0,1,6.469,0,13.772,13.772,0,0,0,4.015-1.666,3.472,3.472,0,0,1,4.577-4.577,13.852,13.852,0,0,0,1.666-4.015A3.491,3.491,0,0,1,29.271,18ZM18.063,23.618a5.625,5.625,0,1,1,5.625-5.625A5.623,5.623,0,0,1,18.063,23.618Z" transform="translate(541 980)" fill="#fff"/>
    </g>
    <path id="Icon_material-computer" data-name="Icon material-computer" d="M68.226,53.758a6.814,6.814,0,0,0,6.788-6.823l.034-34.113A6.843,6.843,0,0,0,68.226,6H13.645a6.843,6.843,0,0,0-6.823,6.823V46.936a6.843,6.843,0,0,0,6.823,6.823H0v6.823H81.871V53.758ZM13.645,12.823H68.226V46.936H13.645Z" transform="translate(518.064 968.71)" fill="#fff"/>
  </g>
</svg>
