<svg xmlns="http://www.w3.org/2000/svg" viewBox="0 0 120 120"><defs><style>.cls-1{fill:#90a1d9;}.cls-2{fill:#fff;}</style></defs><g id="Calque_2" data-name="Calque 2"><g id="Calque_1-2" data-name="Calque 1"><g id="Groupe_105" data-name="Groupe 105"><circle id="Ellipse_19" data-name="Ellipse 19" class="cls-1" cx="60" cy="60" r="60"/></g><path class="cls-2" d="M39,50.51a6.15,6.15,0,0,1,2,.33,4.66,4.66,0,0,1,1.64.94,4.26,4.26,0,0,1,1.08,1.51,4.78,4.78,0,0,1,.4,2,5.4,5.4,0,0,1-.29,1.78,7.11,7.11,0,0,1-.78,1.56A12.7,12.7,0,0,1,42,60.1c-.43.46-.88.94-1.37,1.43l-4.52,4.63A8,8,0,0,1,37,66a6.41,6.41,0,0,1,.95-.08h5.76a.72.72,0,0,1,.55.21.69.69,0,0,1,.21.53V67.9H33v-.73a1.6,1.6,0,0,1,.08-.47,1.28,1.28,0,0,1,.3-.44l5.51-5.53c.45-.47.87-.91,1.24-1.34a9.88,9.88,0,0,0,1-1.29,5.64,5.64,0,0,0,.62-1.32A4.64,4.64,0,0,0,42,55.36,3.38,3.38,0,0,0,41.73,54a2.61,2.61,0,0,0-.66-.95,2.9,2.9,0,0,0-1-.55,3.7,3.7,0,0,0-1.21-.19,3.59,3.59,0,0,0-1.2.19,3.33,3.33,0,0,0-1,.54,3.12,3.12,0,0,0-.72.81,3.22,3.22,0,0,0-.41,1,1,1,0,0,1-.29.5.75.75,0,0,1-.5.16h-.13l-.15,0-1.12-.19A6.51,6.51,0,0,1,34,53.28a5,5,0,0,1,2.91-2.45A6.54,6.54,0,0,1,39,50.51Z"/><path class="cls-2" d="M58.9,59.31a13.73,13.73,0,0,1-.49,3.91A7.91,7.91,0,0,1,57.08,66a5.22,5.22,0,0,1-2,1.6,6,6,0,0,1-4.91,0,5.35,5.35,0,0,1-2-1.6,8.08,8.08,0,0,1-1.32-2.73,16.17,16.17,0,0,1,0-7.82,8,8,0,0,1,1.32-2.74,5.31,5.31,0,0,1,2-1.62,6,6,0,0,1,4.91,0,5.19,5.19,0,0,1,2,1.62,7.87,7.87,0,0,1,1.33,2.74A13.73,13.73,0,0,1,58.9,59.31Zm-2.22,0A14.15,14.15,0,0,0,56.35,56a6.63,6.63,0,0,0-.89-2.15,3.27,3.27,0,0,0-2.81-1.52,3.43,3.43,0,0,0-1.53.35,3.29,3.29,0,0,0-1.28,1.17A6.63,6.63,0,0,0,49,56a14.71,14.71,0,0,0-.33,3.31,14.55,14.55,0,0,0,.33,3.3,6.72,6.72,0,0,0,.89,2.15,3.29,3.29,0,0,0,1.28,1.17,3.5,3.5,0,0,0,3.05,0,3.39,3.39,0,0,0,1.29-1.17,6.72,6.72,0,0,0,.89-2.15A14,14,0,0,0,56.68,59.31Z"/><path class="cls-2" d="M66.83,50.51a6.15,6.15,0,0,1,2,.33,4.66,4.66,0,0,1,1.64.94,4.26,4.26,0,0,1,1.08,1.51,4.78,4.78,0,0,1,.4,2,5.4,5.4,0,0,1-.29,1.78,7.11,7.11,0,0,1-.78,1.56,12.7,12.7,0,0,1-1.13,1.46c-.43.46-.89.94-1.37,1.43L63.9,66.16a8,8,0,0,1,1-.21,6.41,6.41,0,0,1,.95-.08h5.76a.72.72,0,0,1,.55.21.69.69,0,0,1,.21.53V67.9H60.86v-.73A1.62,1.62,0,0,1,61,66.7a1.28,1.28,0,0,1,.3-.44l5.51-5.53c.45-.47.87-.91,1.24-1.34a9.88,9.88,0,0,0,1-1.29,5.64,5.64,0,0,0,.62-1.32,4.64,4.64,0,0,0,.22-1.42A3.38,3.38,0,0,0,69.57,54a2.63,2.63,0,0,0-.67-.95,2.77,2.77,0,0,0-1-.55,3.7,3.7,0,0,0-1.21-.19,3.59,3.59,0,0,0-1.2.19,3.33,3.33,0,0,0-1,.54,3.12,3.12,0,0,0-.72.81,3,3,0,0,0-.41,1,1,1,0,0,1-.29.5.75.75,0,0,1-.5.16h-.13l-.15,0-1.12-.19a6.27,6.27,0,0,1,.65-2.08,5,5,0,0,1,2.91-2.45A6.54,6.54,0,0,1,66.83,50.51Z"/><path class="cls-2" d="M77,66.27h3.7V54.55c0-.36,0-.71,0-1.07l-3.07,2.63a.71.71,0,0,1-.24.13.68.68,0,0,1-.23,0,.69.69,0,0,1-.32-.08.6.6,0,0,1-.22-.19L76,55.1l5.11-4.43h1.74v15.6H86.2V67.9H77Z"/></g></g></svg>