<svg xmlns="http://www.w3.org/2000/svg" width="99.494" height="66.329" viewBox="0 0 99.494 66.329">
  <path id="Icon_awesome-folder-open" data-name="Icon awesome-folder-open" d="M98.923,43.9,86.413,65.345a11.054,11.054,0,0,1-9.549,5.485H7.777A4.146,4.146,0,0,1,4.2,64.595l12.51-21.446a11.055,11.055,0,0,1,9.549-5.485H95.342A4.145,4.145,0,0,1,98.923,43.9ZM26.255,32.137H82.912V23.846a8.291,8.291,0,0,0-8.291-8.291H46.983L35.928,4.5H8.291A8.291,8.291,0,0,0,0,12.791V60.819L11.932,40.364A16.639,16.639,0,0,1,26.255,32.137Z" transform="translate(0 -4.5)" fill="#4e80f2"/>
</svg>
